<?xml version="1.0" standalone="no"?>
<!DOCTYPE svg PUBLIC "-//W3C//DTD SVG 20010904//EN"
 "http://www.w3.org/TR/2001/REC-SVG-20010904/DTD/svg10.dtd">
<svg version="1.0" xmlns="http://www.w3.org/2000/svg"
 width="1280.000000pt" height="1020.000000pt" viewBox="0 0 1280.000000 1020.000000"
 preserveAspectRatio="xMidYMid meet">

<g transform="translate(0.000000,1020.000000) scale(0.100000,-0.100000)"
fill="#000000" stroke="none">
<path d="M5170 7168 c0 -7 21 -60 46 -118 212 -488 319 -987 285 -1330 -16
-153 -35 -233 -88 -365 -67 -167 -83 -234 -83 -353 0 -124 19 -222 65 -336 99
-246 278 -442 532 -583 100 -56 167 -114 217 -186 44 -64 86 -173 86 -225 0
-86 -7 -82 166 -82 l153 0 5 33 c21 125 30 156 63 220 44 82 116 157 199 207
102 59 249 158 268 179 18 20 18 21 -14 38 -275 152 -478 378 -553 618 -40
128 -49 303 -21 446 64 334 -115 702 -582 1197 -218 230 -744 684 -744 640z"/>
<path d="M7505 7095 c-348 -269 -722 -639 -933 -920 -102 -137 -100 -129 -58
-206 120 -219 158 -433 120 -667 -22 -132 -14 -270 20 -377 64 -199 227 -387
447 -516 37 -21 74 -39 83 -39 18 0 129 167 176 265 120 252 130 470 30 682
-82 174 -101 260 -107 498 -4 146 -1 217 11 305 45 311 135 612 281 942 25 56
44 105 43 110 -2 4 -53 -30 -113 -77z"/>
<path d="M5000 3095 c-42 -19 -65 -23 -98 -19 -73 11 -129 -52 -68 -76 32 -12
52 -43 67 -103 9 -38 9 -93 0 -245 -18 -305 -29 -350 -88 -373 -56 -21 9 -76
76 -64 48 8 77 8 132 0 40 -6 49 -4 75 19 32 29 31 31 -35 68 -17 9 -36 29
-41 43 -11 29 -12 390 -2 470 5 35 12 50 22 50 9 0 47 -63 100 -166 179 -351
271 -482 356 -507 48 -14 93 -15 113 -3 11 7 8 16 -15 47 l-29 38 3 310 c2
171 7 327 13 347 7 28 18 41 44 53 43 21 44 37 4 70 -29 25 -35 26 -127 22
-85 -3 -98 -6 -114 -26 -24 -29 -23 -36 8 -57 49 -31 56 -69 61 -304 4 -168 2
-218 -8 -225 -8 -4 -18 0 -27 12 -28 38 -282 500 -289 523 -3 14 -1 38 5 55
10 25 9 33 -5 48 -22 25 -67 22 -133 -7z"/>
<path d="M8255 3094 c-39 -19 -60 -22 -95 -18 -37 5 -50 2 -72 -16 -37 -29
-35 -47 6 -64 41 -17 51 -33 65 -108 15 -84 -5 -431 -31 -537 -10 -39 -39 -70
-81 -84 -20 -6 9 -38 44 -48 30 -9 48 -9 78 0 31 9 50 9 85 -1 51 -14 92 -4
110 25 9 15 7 22 -12 35 -91 66 -94 76 -86 332 6 232 10 262 30 258 8 -2 56
-82 105 -178 215 -416 294 -510 427 -510 42 0 47 14 20 58 -23 37 -23 38 -21
357 1 196 5 331 12 347 6 17 24 33 46 42 43 18 44 36 4 70 -29 25 -36 26 -119
23 -62 -2 -95 -8 -114 -20 -30 -20 -34 -53 -7 -62 37 -11 51 -50 61 -172 10
-115 9 -357 -2 -368 -11 -12 -70 85 -243 402 -74 136 -77 145 -70 189 4 30 2
50 -6 60 -17 21 -77 16 -134 -12z"/>
<path d="M6866 3094 c-22 -13 -34 -14 -53 -5 -13 6 -35 11 -48 11 -24 0 -85
-44 -85 -61 0 -6 16 -17 35 -24 19 -8 39 -24 45 -34 6 -12 11 -135 12 -313 3
-334 -1 -356 -64 -397 -28 -18 -35 -28 -28 -36 16 -19 61 -25 107 -13 33 8 52
7 91 -6 36 -12 56 -14 75 -7 41 16 43 32 10 60 -41 36 -50 55 -57 136 -6 53
-4 75 7 89 8 11 58 31 132 53 65 19 140 45 168 59 31 16 53 22 59 16 5 -5 8
-74 6 -162 l-3 -152 -31 -28 c-17 -15 -38 -30 -45 -33 -11 -3 -11 -7 -2 -17
16 -17 85 -18 116 -1 21 11 31 10 72 -8 40 -18 54 -20 81 -11 57 19 61 35 15
64 -22 14 -46 36 -53 48 -9 17 -12 98 -12 303 l-1 280 28 58 c16 31 32 57 37
57 5 0 16 7 24 16 43 42 -49 86 -124 59 -23 -8 -71 -15 -105 -15 -47 0 -66 -4
-78 -18 -26 -28 -21 -50 12 -57 50 -11 66 -38 69 -124 3 -66 1 -80 -18 -104
-39 -49 -304 -159 -346 -143 -15 6 -17 21 -11 161 8 176 18 215 66 234 38 16
39 33 5 60 -31 25 -68 26 -108 5z"/>
<path d="M9322 3094 c-106 -28 -207 -113 -255 -215 -40 -86 -49 -137 -45 -260
3 -106 5 -119 36 -180 56 -112 151 -191 282 -235 83 -28 236 -26 316 4 l61 23
38 -25 c60 -41 95 -34 70 15 -30 56 -13 318 24 389 11 22 21 47 21 55 0 19
-47 20 -91 1 -22 -9 -42 -11 -63 -5 -47 14 -76 11 -123 -12 -41 -20 -80 -70
-69 -88 3 -4 27 -6 53 -4 39 4 53 1 76 -17 23 -18 27 -29 27 -74 0 -59 -14
-85 -64 -115 -47 -30 -191 -30 -256 0 -94 42 -159 133 -181 251 -10 56 -9 75
6 136 29 122 94 199 191 228 88 26 182 15 255 -32 34 -21 38 -28 41 -71 l3
-47 28 25 c18 16 30 38 34 64 3 22 16 52 28 67 26 31 41 96 26 111 -7 7 -23 7
-50 -2 -34 -10 -56 -8 -137 9 -112 23 -207 25 -282 4z"/>
<path d="M3258 3085 c-126 -26 -207 -81 -256 -172 -97 -184 -112 -329 -47
-467 33 -71 115 -155 181 -189 80 -40 240 -80 294 -72 149 22 260 144 260 286
0 42 -8 69 -20 69 -5 0 -24 -29 -44 -64 -61 -110 -123 -149 -236 -149 -62 0
-84 4 -127 26 -71 37 -120 88 -157 166 -75 159 -10 342 149 417 75 35 182 34
256 -3 61 -31 70 -53 44 -102 -15 -30 -15 -31 8 -31 36 0 75 36 89 82 9 30 19
43 41 51 33 11 57 57 57 109 0 56 -11 63 -58 39 -49 -25 -74 -26 -167 -6 -105
22 -192 26 -267 10z"/>
<path d="M4125 3081 c-111 -37 -192 -114 -252 -240 -34 -70 -37 -85 -41 -182
-4 -100 -2 -109 27 -180 17 -41 46 -90 63 -109 73 -79 192 -139 317 -160 143
-24 252 9 341 102 95 99 142 221 143 375 0 98 -1 106 -36 177 -58 116 -147
189 -272 222 -71 19 -228 17 -290 -5z m254 -144 c69 -25 133 -84 167 -153 23
-48 26 -63 22 -127 -8 -125 -85 -255 -180 -303 -104 -52 -236 -27 -322 62 -59
61 -76 107 -76 210 0 116 26 196 83 260 76 83 176 100 306 51z"/>
<path d="M6104 3085 c-148 -27 -245 -109 -303 -256 -77 -195 -56 -353 64 -487
56 -63 136 -105 260 -137 113 -29 158 -27 241 10 98 44 168 163 162 273 -2 32
-8 57 -15 59 -7 3 -27 -26 -47 -65 -57 -113 -117 -153 -234 -154 -64 -1 -86 3
-134 26 -124 59 -200 201 -182 341 7 61 45 139 86 182 83 87 236 111 346 56
64 -31 73 -52 47 -102 -15 -31 -15 -31 9 -31 35 0 76 39 85 80 4 23 15 39 32
47 14 7 33 21 43 32 24 27 32 100 13 125 -14 19 -15 19 -49 -2 -44 -27 -66
-27 -198 -2 -119 23 -128 23 -226 5z"/>
<path d="M7810 3080 c-19 -4 -60 -4 -90 -2 -49 4 -58 1 -79 -21 -26 -29 -21
-47 13 -47 36 0 57 -23 67 -71 9 -46 3 -522 -8 -574 -9 -45 -31 -73 -69 -85
-40 -14 -43 -24 -9 -46 18 -12 37 -14 72 -10 74 10 95 9 140 -5 39 -12 45 -11
70 8 41 30 41 49 -2 57 -26 5 -41 16 -55 39 -17 28 -20 50 -20 177 1 234 15
457 31 476 7 9 23 20 36 25 23 9 29 33 14 57 -11 18 -68 29 -111 22z"/>
</g>
</svg>
